<svg width="169" height="30" viewBox="0 0 169 30" fill="none" xmlns="http://www.w3.org/2000/svg">
<g clip-path="url(#clip0_1_3665)">
<path d="M88.506 29.9997C88.506 29.9997 88.5022 29.9997 88.4936 29.9997C87.9925 29.9997 72.1441 29.919 73.5942 20.9424C73.6037 20.8799 73.6141 20.8174 73.6255 20.754C73.6474 20.6349 73.673 20.5138 73.7015 20.3908C73.7555 20.1583 73.8106 19.9267 73.8666 19.6942C73.9026 19.5462 73.9387 19.3982 73.9757 19.2512C74.0099 19.1147 74.044 18.9783 74.0792 18.8409C74.1124 18.7112 74.1456 18.5815 74.1798 18.4527C74.1807 18.4479 74.1826 18.444 74.1835 18.4392C74.2471 18.1971 74.3126 17.955 74.3809 17.7138C74.3895 17.6811 74.398 17.6484 74.4075 17.6158C74.9019 15.8487 75.4875 14.1075 76.2049 12.4221C76.9879 10.5859 77.9739 8.93506 79.1193 7.30827C80.7839 4.94544 82.7512 2.35968 85.2537 0.855885C86.2198 0.274546 87.3681 -0.0905927 88.5003 0.0189489C89.6324 -0.0905927 90.7798 0.274546 91.7459 0.855885C94.2484 2.35968 96.2157 4.94544 97.8802 7.30827C99.0257 8.93506 100.012 10.5859 100.794 12.4221C101.682 14.5044 102.366 16.6722 102.927 18.8697C102.986 19.0975 103.043 19.3261 103.099 19.5548C103.101 19.5596 103.102 19.5644 103.103 19.5692C103.135 19.7019 103.167 19.8345 103.198 19.9671C103.213 20.0276 103.228 20.0872 103.241 20.1477C103.261 20.2284 103.279 20.3101 103.298 20.3908C105.498 29.9161 89.0175 29.9997 88.506 29.9997Z" fill="url(#paint0_radial_1_3665)"/>
<circle cx="92.5002" cy="8.00006" r="2" fill="#D7D9FF"/>
<path d="M88.5057 29.9998C88.5057 29.9998 88.5019 29.9998 88.4934 29.9998C87.9923 29.9998 72.1439 29.9191 73.594 20.9424C73.6035 20.88 73.6139 20.8175 73.6253 20.7541C73.6471 20.6349 73.6727 20.5139 73.7012 20.3909C73.7553 20.1583 73.8103 19.9268 73.8663 19.6942C73.9024 19.5462 73.9385 19.3983 73.9755 19.2512C74.0096 19.1148 74.0438 18.9784 74.0789 18.8409C74.1121 18.7112 74.1453 18.5815 74.1795 18.4527C74.1805 18.4479 74.1824 18.4441 74.1833 18.4393C74.2469 18.1971 74.3124 17.955 74.3807 17.7138C74.4158 17.6869 74.4519 17.66 74.487 17.6331C76.1572 16.3686 78.1074 14.6486 78.6237 13.1842C80.2019 8.71027 83.3384 11.2614 84.6129 12.5644C85.0181 12.9785 85.6502 13.0612 86.1408 12.7566C86.8022 12.3453 87.7218 11.5516 88.63 10.0363C89.3076 8.90629 90.715 8.45947 91.8908 9.03313C93.7917 9.96135 96.9955 12.3367 102.254 18.0847C102.497 18.3509 102.722 18.6123 102.927 18.8698C102.986 19.0975 103.043 19.3262 103.099 19.5549C103.1 19.5597 103.101 19.5645 103.102 19.5693C103.135 19.7019 103.167 19.8345 103.198 19.9671C103.212 20.0276 103.228 20.0872 103.241 20.1478C103.261 20.2285 103.279 20.3101 103.298 20.3909C105.498 29.9162 89.0172 29.9998 88.5057 29.9998Z" fill="#8589EB"/>
<path opacity="0.15" d="M88.5057 30C88.5057 30 88.5019 30 88.4934 30C87.9923 30 72.1439 29.9193 73.594 20.9426C73.6035 20.8802 73.6139 20.8177 73.6253 20.7543C73.6471 20.6351 73.6727 20.5141 73.7012 20.3911C73.7553 20.1585 73.8103 19.9269 73.8663 19.6944C73.9024 19.5464 73.9385 19.3985 73.9755 19.2514C74.7375 19.0929 75.5717 19.1986 76.2009 20.0182C76.2635 20.0989 76.3262 20.1787 76.3907 20.2565C76.7219 20.6563 77.0844 21.0108 77.4887 21.2837C77.7772 21.4788 78.0866 21.6325 78.4216 21.7315C79.0194 21.9093 79.6989 21.9131 80.4809 21.671C81.4593 21.3692 82.5991 20.6822 83.9448 19.4667C87.98 15.822 93.6512 18.4722 95.5046 20.9023C96.6662 22.4243 99.09 22.0976 100.678 21.6335C100.961 21.5509 101.241 21.4576 101.514 21.3491C101.774 21.2453 102.028 21.129 102.273 20.9945C102.326 20.9657 102.379 20.9359 102.431 20.9051C102.576 20.8206 102.716 20.7303 102.854 20.6322C102.98 20.5419 103.107 20.442 103.179 20.3036C103.206 20.2546 103.224 20.2018 103.241 20.148C103.261 20.2287 103.279 20.3103 103.298 20.3911C105.498 29.9164 89.0172 30 88.5057 30Z" fill="white"/>
<path opacity="0.15" d="M88.5057 30.0001C88.5057 30.0001 88.5019 30.0001 88.4934 30.0001C87.9923 30.0001 72.1439 29.9194 73.594 20.9427C73.6035 20.8803 73.6139 20.8178 73.6253 20.7544C73.6471 20.6352 73.6727 20.5142 73.7012 20.3912C73.7553 20.1586 73.8103 19.9271 73.8663 19.6945C73.9024 19.5466 73.9385 19.3986 73.9755 19.2516C74.0096 19.1151 74.0438 18.9787 74.0789 18.8413C74.1121 18.7115 74.1453 18.5818 74.1795 18.4531C74.1805 18.4483 74.1824 18.4444 74.1833 18.4396C74.2469 18.1975 74.3124 17.9553 74.3807 17.7141C74.3892 17.6815 74.3978 17.6488 74.4073 17.6161C74.4338 17.6219 74.4604 17.6276 74.487 17.6334C74.8685 17.7228 75.2481 17.8967 75.6144 18.184C76.2009 18.6443 76.7532 19.3947 77.2201 20.5507C77.2989 20.7448 77.3758 20.9514 77.4488 21.1695C77.4621 21.2079 77.4745 21.2454 77.4887 21.2838C77.9053 22.4744 78.599 23.7226 79.7777 24.2367C79.8935 24.2876 80.015 24.3308 80.1402 24.3664C81.671 24.7998 83.4105 23.9542 84.5987 23.025C84.9811 22.7261 85.3351 22.3889 85.7365 22.1179C88.4175 20.3066 91.739 23.0413 93.3504 25.039C93.4254 25.1322 93.4994 25.2264 93.5725 25.3206C93.8477 25.677 94.1305 25.9586 94.419 26.1709C96.9595 28.0533 99.9033 24.6671 101.839 21.6826C101.991 21.4501 102.135 21.2195 102.273 20.9946C102.486 20.6477 102.683 20.3133 102.861 20.0001C102.937 19.8665 103.009 19.7368 103.079 19.6129C103.086 19.5984 103.095 19.584 103.102 19.5696C103.135 19.7022 103.167 19.8348 103.198 19.9674C103.212 20.028 103.228 20.0875 103.241 20.1481C103.261 20.2288 103.279 20.3105 103.298 20.3912C105.498 29.9165 89.0172 30.0001 88.5057 30.0001Z" fill="white"/>
<path opacity="0.15" d="M88.5057 30C88.5057 30 88.5019 30 88.4934 30C87.9923 30 72.1439 29.9192 73.594 20.9426C74.2972 20.5256 75.3449 20.0749 76.3907 20.2565C76.6697 20.3055 76.9487 20.3987 77.2201 20.5506C77.6453 20.7869 78.0543 21.1646 78.4216 21.7315C78.6303 22.0534 78.8258 22.4368 79.0033 22.8894C79.195 23.3813 79.4522 23.8464 79.7777 24.2365C80.2949 24.8573 80.9848 25.2878 81.8608 25.3368C83.2568 25.4146 84.5313 24.6718 85.6388 23.9079C88.1574 22.1716 90.3031 25.3175 92.8588 25.9642C93.4016 26.1016 93.9217 26.166 94.419 26.1708C97.2679 26.2006 99.3595 24.2634 100.569 22.7231C100.995 22.1822 101.312 21.6902 101.514 21.3491C101.689 21.0531 101.779 20.8715 101.779 20.8715C101.779 20.8715 102.196 20.1633 102.861 20C102.883 19.9932 102.906 19.9884 102.929 19.9846C103.015 19.9683 103.105 19.9625 103.198 19.9673C103.212 20.0278 103.228 20.0874 103.241 20.148C103.261 20.2287 103.279 20.3103 103.298 20.3911C105.498 29.9164 89.0172 30 88.5057 30Z" fill="white"/>
<path opacity="0.15" d="M88.5057 30.0001C88.5057 30.0001 88.5019 30.0001 88.4934 30.0001C87.9923 30.0001 72.1439 29.9194 73.594 20.9427C73.6035 20.8802 73.6139 20.8178 73.6253 20.7544C73.6471 20.6352 73.6727 20.5141 73.7012 20.3912C73.7553 20.1586 73.8103 19.927 73.8663 19.6945C73.9024 19.5465 73.9385 19.3985 73.9755 19.2515C74.0096 19.1151 74.0438 18.9786 74.0789 18.8412C74.1121 18.7115 74.1453 18.5818 74.1795 18.453C74.1805 18.4482 74.1824 18.4444 74.1833 18.4396C74.6502 18.306 75.1361 18.2099 75.6144 18.184C76.924 18.1119 78.1739 18.5645 78.8135 20.199C79.1362 21.0244 79.7208 21.451 80.4809 21.6711C80.8937 21.7912 81.3578 21.8498 81.8608 21.8776C83.2568 21.9555 84.3889 20.9379 85.6388 20.4488C91.4353 18.1811 92.9594 21.844 95.4211 22.7934C97.7206 23.6803 99.388 23.4016 100.569 22.7232C101.08 22.4302 101.5 22.0631 101.839 21.6826C102.073 21.4231 102.268 21.157 102.431 20.9052C102.657 20.5545 102.821 20.2307 102.929 19.9847C103.002 19.8204 103.051 19.6916 103.079 19.6128C103.087 19.5888 103.094 19.5696 103.099 19.5552C103.1 19.56 103.101 19.5648 103.102 19.5696C103.135 19.7022 103.167 19.8348 103.198 19.9674C103.212 20.0279 103.228 20.0875 103.241 20.148C103.261 20.2288 103.279 20.3104 103.298 20.3912C105.498 29.9165 89.0172 30.0001 88.5057 30.0001Z" fill="white"/>
</g>
<path d="M114.028 17.368C114.028 16.2587 114.268 15.272 114.748 14.408C115.228 13.5333 115.895 12.856 116.748 12.376C117.612 11.8853 118.588 11.64 119.676 11.64C121.009 11.64 122.151 11.992 123.1 12.696C124.049 13.4 124.684 14.36 125.004 15.576H121.996C121.772 15.1067 121.452 14.7493 121.036 14.504C120.631 14.2587 120.167 14.136 119.644 14.136C118.801 14.136 118.119 14.4293 117.596 15.016C117.073 15.6027 116.812 16.3867 116.812 17.368C116.812 18.3493 117.073 19.1333 117.596 19.72C118.119 20.3067 118.801 20.6 119.644 20.6C120.167 20.6 120.631 20.4773 121.036 20.232C121.452 19.9867 121.772 19.6293 121.996 19.16H125.004C124.684 20.376 124.049 21.336 123.1 22.04C122.151 22.7333 121.009 23.08 119.676 23.08C118.588 23.08 117.612 22.84 116.748 22.36C115.895 21.8693 115.228 21.192 114.748 20.328C114.268 19.464 114.028 18.4773 114.028 17.368ZM137.512 21.016H133.32L132.648 23H129.784L133.848 11.768H137.016L141.08 23H138.184L137.512 21.016ZM136.808 18.904L135.416 14.792L134.04 18.904H136.808ZM151.884 23L149.548 18.76H148.892V23H146.156V11.768H150.748C151.634 11.768 152.386 11.9227 153.004 12.232C153.634 12.5413 154.103 12.968 154.412 13.512C154.722 14.0453 154.876 14.6427 154.876 15.304C154.876 16.0507 154.663 16.7173 154.236 17.304C153.82 17.8907 153.202 18.3067 152.38 18.552L154.972 23H151.884ZM148.892 16.824H150.588C151.09 16.824 151.463 16.7013 151.708 16.456C151.964 16.2107 152.092 15.864 152.092 15.416C152.092 14.9893 151.964 14.6533 151.708 14.408C151.463 14.1627 151.09 14.04 150.588 14.04H148.892V16.824ZM163.17 13.96V16.232H166.834V18.344H163.17V20.808H167.314V23H160.434V11.768H167.314V13.96H163.17Z" fill="#3F414E"/>
<path d="M11.22 11.768V23H8.484V18.376H4.228V23H1.492V11.768H4.228V16.168H8.484V11.768H11.22ZM26.6671 11.768L22.7791 19.288V23H20.0431V19.288L16.1551 11.768H19.2591L21.4351 16.472L23.5951 11.768H26.6671ZM40.1695 15.384C40.1695 16.0347 40.0202 16.632 39.7215 17.176C39.4228 17.7093 38.9642 18.1413 38.3455 18.472C37.7268 18.8027 36.9588 18.968 36.0415 18.968H34.3455V23H31.6095V11.768H36.0415C36.9375 11.768 37.6948 11.9227 38.3135 12.232C38.9322 12.5413 39.3962 12.968 39.7055 13.512C40.0148 14.056 40.1695 14.68 40.1695 15.384ZM35.8335 16.792C36.3562 16.792 36.7455 16.6693 37.0015 16.424C37.2575 16.1787 37.3855 15.832 37.3855 15.384C37.3855 14.936 37.2575 14.5893 37.0015 14.344C36.7455 14.0987 36.3562 13.976 35.8335 13.976H34.3455V16.792H35.8335ZM48.1699 13.96V16.232H51.8339V18.344H48.1699V20.808H52.3139V23H45.4339V11.768H52.3139V13.96H48.1699ZM63.6581 23L61.3221 18.76H60.6661V23H57.9301V11.768H62.5221C63.4075 11.768 64.1595 11.9227 64.7781 12.232C65.4075 12.5413 65.8768 12.968 66.1861 13.512C66.4955 14.0453 66.6501 14.6427 66.6501 15.304C66.6501 16.0507 66.4368 16.7173 66.0101 17.304C65.5941 17.8907 64.9755 18.3067 64.1541 18.552L66.7461 23H63.6581ZM60.6661 16.824H62.3621C62.8635 16.824 63.2368 16.7013 63.4821 16.456C63.7381 16.2107 63.8661 15.864 63.8661 15.416C63.8661 14.9893 63.7381 14.6533 63.4821 14.408C63.2368 14.1627 62.8635 14.04 62.3621 14.04H60.6661V16.824Z" fill="#3F414E"/>
<defs>
<radialGradient id="paint0_radial_1_3665" cx="0" cy="0" r="1" gradientUnits="userSpaceOnUse" gradientTransform="translate(88.5001 14.9998) scale(14.9075 15.0942)">
<stop offset="2.23767e-07" stop-color="#8485E0"/>
<stop offset="1" stop-color="#7680FC"/>
</radialGradient>
<clipPath id="clip0_1_3665">
<rect width="30" height="30" fill="white" transform="translate(73.5)"/>
</clipPath>
</defs>
</svg>
