<svg width="20" height="20" viewBox="0 0 20 20" fill="none" xmlns="http://www.w3.org/2000/svg">
<mask id="mask0_88_21047" style="mask-type:alpha" maskUnits="userSpaceOnUse" x="1" y="1" width="18" height="18">
<path fill-rule="evenodd" clip-rule="evenodd" d="M9.99999 1.66602C5.39999 1.66602 1.66666 5.39935 1.66666 9.99935C1.66666 14.5993 5.39999 18.3327 9.99999 18.3327C14.6 18.3327 18.3333 14.5993 18.3333 9.99935C18.3333 5.39935 14.6 1.66602 9.99999 1.66602ZM9.99999 10.8327C9.54166 10.8327 9.16666 10.4577 9.16666 9.99935V6.66602C9.16666 6.20768 9.54166 5.83268 9.99999 5.83268C10.4583 5.83268 10.8333 6.20768 10.8333 6.66602V9.99935C10.8333 10.4577 10.4583 10.8327 9.99999 10.8327ZM9.16666 12.4993V14.166H10.8333V12.4993H9.16666Z" fill="black"/>
</mask>
<g mask="url(#mask0_88_21047)">
<rect width="20" height="20" fill="#FCC419"/>
</g>
</svg>
