<svg width="20" height="20" viewBox="0 0 20 20" fill="none" xmlns="http://www.w3.org/2000/svg">
<path fill-rule="evenodd" clip-rule="evenodd" d="M9.99984 1.6665C5.39984 1.6665 1.6665 5.39984 1.6665 9.99984C1.6665 14.5998 5.39984 18.3332 9.99984 18.3332C14.5998 18.3332 18.3332 14.5998 18.3332 9.99984C18.3332 5.39984 14.5998 1.6665 9.99984 1.6665ZM9.99984 10.8332C9.5415 10.8332 9.1665 10.4582 9.1665 9.99984V6.6665C9.1665 6.20817 9.5415 5.83317 9.99984 5.83317C10.4582 5.83317 10.8332 6.20817 10.8332 6.6665V9.99984C10.8332 10.4582 10.4582 10.8332 9.99984 10.8332ZM9.1665 12.4998V14.1665H10.8332V12.4998H9.1665Z" fill="black"/>
</svg>
