<svg width="20" height="20" viewBox="0 0 20 20" fill="none" xmlns="http://www.w3.org/2000/svg">
<path d="M12.9833 9.99993C12.9833 11.6499 11.65 12.9833 10 12.9833C8.35 12.9833 7.01666 11.6499 7.01666 9.99993C7.01666 8.34993 8.35 7.0166 10 7.0166C11.65 7.0166 12.9833 8.34993 12.9833 9.99993Z" stroke="#292D32" stroke-width="1.5" stroke-linecap="round" stroke-linejoin="round"/>
<path d="M9.99999 16.8913C12.9417 16.8913 15.6833 15.1579 17.5917 12.1579C18.3417 10.9829 18.3417 9.00794 17.5917 7.83294C15.6833 4.83294 12.9417 3.09961 9.99999 3.09961C7.05833 3.09961 4.31666 4.83294 2.40833 7.83294C1.65833 9.00794 1.65833 10.9829 2.40833 12.1579C4.31666 15.1579 7.05833 16.8913 9.99999 16.8913Z" stroke="#292D32" stroke-width="1.5" stroke-linecap="round" stroke-linejoin="round"/>
</svg>
