<svg width="24" height="24" viewBox="0 0 24 24" fill="none" xmlns="http://www.w3.org/2000/svg">
<path d="M9.83007 14.8209C11.2738 14.6935 12.726 14.6935 14.1697 14.8209L14.6307 14.8599C15.2612 14.922 15.8873 15.0194 16.5034 15.1509C18.0737 15.4744 19.214 16.0483 19.7188 17.1127C20.0938 17.9047 20.0938 18.8241 19.7186 19.6164C19.2126 20.6836 18.0576 21.2623 16.5151 21.5666L16.0478 21.6636C15.4231 21.7835 14.7932 21.8653 14.1675 21.9081C12.9934 22.0081 11.8139 22.0263 10.676 21.9637C10.5506 21.9637 10.4664 21.9633 10.3922 21.9615L10.248 21.9561C10.0726 21.9472 9.91191 21.9288 9.84448 21.909C9.05286 21.8553 8.2665 21.7407 7.51215 21.5705L7.25626 21.5171C5.82782 21.1997 4.76996 20.6271 4.28064 19.6153C4.09532 19.2227 3.99946 18.7935 4.00002 18.3627C3.99841 17.9288 4.09505 17.5002 4.28726 17.0999C4.79687 16.0763 5.9942 15.4604 7.49082 15.1521C8.26623 14.9859 9.05235 14.8749 9.83007 14.8209ZM14.0436 16.263C12.6837 16.143 11.316 16.143 9.94296 16.264C9.21964 16.3144 8.50075 16.4159 7.78607 16.569C6.67921 16.7971 5.83295 17.2324 5.5812 17.7379C5.4885 17.931 5.44075 18.1428 5.44154 18.3609C5.44127 18.5803 5.48966 18.797 5.58026 18.989C5.83917 19.5243 6.63773 19.9244 7.80777 20.1537L8.16029 20.2283C8.75068 20.3454 9.35874 20.4261 10.0345 20.4771C10.1198 20.4942 10.2119 20.5048 10.3212 20.5103L10.7148 20.5171C11.825 20.5771 12.938 20.5599 14.0576 20.4647C14.7792 20.4152 15.496 20.3112 16.2195 20.1498L16.4445 20.1021C17.472 19.8691 18.183 19.4879 18.4169 18.9944C18.6057 18.5958 18.6057 18.133 18.4171 17.7348C18.1667 17.2067 17.3751 16.8083 16.2087 16.568C15.4991 16.4165 14.7799 16.3149 14.0563 16.264L14.0436 16.263ZM12.0043 2C14.9383 2 17.3168 4.38864 17.3168 7.33517C17.3168 10.2817 14.9383 12.6703 12.0043 12.6703C9.07027 12.6703 6.69177 10.2817 6.69177 7.33517C6.69177 4.38864 9.07027 2 12.0043 2ZM12.0043 3.44767C9.8664 3.44767 8.1333 5.18816 8.1333 7.33517C8.1333 9.48218 9.8664 11.2227 12.0043 11.2227C14.1422 11.2227 15.8753 9.48218 15.8753 7.33517C15.8753 5.18816 14.1422 3.44767 12.0043 3.44767Z" fill="#A4A4A4"/>
</svg>
